<svg width="116" height="115" viewBox="0 0 116 115" fill="none" xmlns="http://www.w3.org/2000/svg">
<path d="M95.4342 94.9784L95.3609 90.9338C98.2922 79.1026 95.5828 69.9704 92.4661 64.0808C94.677 63.0176 96.2174 60.7899 96.2174 58.1949C96.2174 55.7728 94.871 53.6768 92.8959 52.5405C99.9163 42.6813 97.2749 27.8154 96.7948 25.4482C96.8926 25.0279 96.7416 19.7255 96.7446 19.8795C96.848 18.0908 95.4188 16.4546 92.4625 15.0167C90.8811 14.2291 88.5958 13.5028 85.6702 12.8582C73.6524 10.1911 53.4035 9.28376 36.4321 12.1297C32.0314 12.8694 20.5319 14.9889 20.6467 19.428C20.7723 24.5309 20.6679 24.3605 20.9088 25.1308C20.2014 27.7889 16.646 42.7741 23.3554 52.6336C20.5389 55.3608 20.6777 59.9174 23.8856 62.4396C19.9697 68.2948 16.3638 77.628 19.5353 90.2734C19.6351 94.0819 19.4335 95.4362 19.9874 96.3979C21.9365 100.68 34.4631 102.757 39.1501 103.402C52.3722 105.159 70.9943 105.227 84.6091 102.173C85.7965 101.859 88.6439 101.3 91.3304 100.058C95.1548 98.3049 95.694 96.3515 95.4342 94.9784ZM49.5387 51.3638C47.9319 48.8924 46.142 47.8328 35.9782 38.9436C33.2923 36.5931 31.8009 33.1066 31.8157 30.9892C39.2715 32.8049 47.4586 33.4651 55.1667 33.6963C65.8178 34.3118 76.2678 33.6745 87.0451 31.0924C86.9864 33.4566 85.2483 35.5388 83.7693 37.429C77.8754 44.879 73.6475 46.2088 70.4142 49.5961C69.0352 51.0253 67.382 53.3238 67.3314 56.1704C67.308 58.4816 68.363 60.5944 69.514 62.5448C76.5459 74.1711 82.0769 74.7117 81.9379 82.565C81.9258 83.122 81.6577 84.9788 80.9093 86.0367C79.223 88.4179 70.9643 90.1735 67.8835 90.6329C58.6627 92.0557 37.9866 91.7371 33.9626 83.3908C32.5677 80.5121 33.7813 76.7394 37.2039 73.3051C40.3806 70.146 41.3624 69.7924 44.8746 66.745C50.704 61.686 52.4501 55.9398 49.5387 51.3638ZM32.6976 85.7423C38.6508 93.9706 57.9952 94.4833 68.2347 92.9067C72.0128 92.3432 80.5889 90.4912 82.8079 87.3581C83.138 86.8921 83.3903 86.3619 83.5922 85.8258C85.9177 86.3482 93.3134 88.2594 93.0387 90.5783C92.7355 92.8328 85.6116 94.5407 83.3722 95.0276C73.5927 97.1437 62.6156 97.2543 62.969 97.2418C54.408 97.2828 47.8449 97.2098 39.3555 96.0722C35.8302 95.5873 23.7746 93.5329 21.8695 90.1861C21.8701 89.5471 23.8528 87.5538 32.6976 85.7423ZM89.6003 62.455C87.2312 62.455 85.3031 60.5435 85.3031 58.1949C85.3031 55.8462 87.2312 53.9348 89.6003 53.9348C91.9694 53.9348 93.8974 55.8462 93.8974 58.1949C93.8974 60.5435 91.9694 62.455 89.6003 62.455ZM90.6098 51.736C90.2783 51.6851 89.946 51.6348 89.6003 51.6348C85.9519 51.6348 82.9831 54.5779 82.9831 58.1949C82.9831 61.8118 85.9519 64.755 89.6003 64.755C89.7931 64.755 89.9748 64.7146 90.1635 64.6985C92.9214 69.7186 95.4552 77.4373 93.7174 87.4616C91.2571 85.332 87.2768 84.2945 84.1614 83.5943C84.2223 83.1793 84.2528 82.8293 84.2579 82.6106C84.4141 73.6144 78.4269 72.8096 71.51 61.3731C70.3817 59.4609 69.6341 57.849 69.6514 56.2026C69.6801 54.5667 70.5471 52.784 72.093 51.1833C72.0945 51.1818 72.096 51.1803 72.0968 51.1788C75.1474 47.9857 79.4433 46.6255 85.5969 38.8463C87.5954 36.3021 89.6116 33.7419 89.3672 30.4669C91.2405 29.9062 93.2996 29.1619 94.8623 28.0122C95.5353 32.9104 96.3125 44.3073 90.6098 51.736ZM36.8195 14.3975C53.4911 11.6005 73.5314 12.5233 85.1657 15.1028C87.9086 15.7078 90.0149 16.3711 91.4256 17.0741C91.4294 17.0764 91.4324 17.0779 91.4362 17.0794C97.776 20.1595 93.0576 22.2726 86.1671 23.9082C85.6583 23.9659 72.6842 27.6331 48.8205 26.0997C42.3954 25.6377 33.7145 24.5966 27.6562 22.3692C25.2685 21.4856 24.7559 21.0242 24.4567 20.8858C19.6723 17.7558 31.484 15.2943 36.8195 14.3975ZM27.9715 53.0596C30.3406 53.0596 32.2686 54.971 32.2686 57.3196C32.2686 59.6683 30.3406 61.5797 27.9715 61.5797C25.6024 61.5797 23.6743 59.6683 23.6743 57.3196C23.6743 54.971 25.6024 53.0596 27.9715 53.0596ZM25.9427 63.5312C30.4125 64.9721 34.5886 61.5887 34.5886 57.3196C34.5886 52.6201 29.6898 49.377 25.2761 51.3419C20.0743 43.6778 21.7742 32.0913 22.7571 27.4279C24.6205 28.8139 27.2841 29.7356 29.5342 30.3876C29.2307 32.9054 30.8129 37.4906 34.4429 40.6679C44.406 49.3842 46.2088 50.4877 47.5827 52.5998C50.815 57.6813 45.697 62.9746 43.346 65.014C39.8724 68.0298 38.8725 68.3881 35.5568 71.6849C31.6818 75.5734 30.2628 79.966 31.5887 83.6206C26.6072 84.6818 23.1631 85.9399 21.2728 87.3771C19.2453 76.5942 22.4936 68.6137 25.9427 63.5312Z" fill="black"/>
<path d="M42.0635 80.2561C42.4547 81.5326 43.5203 82.5965 44.9869 83.1745C46.5978 83.8082 48.3813 83.8734 49.9668 84.1029C55.4375 84.9051 61.3308 84.9094 66.8933 84.0498C71.4653 83.3722 73.7702 82.0702 74.3676 81.6876C75.5466 80.9322 74.4509 79.3181 73.5255 78.3896C69.6634 74.5054 66.3684 70.3082 63.7342 65.917C62.2563 63.4404 60.5676 60.0809 60.6266 56.0559C60.696 51.6814 62.8849 47.5061 66.1313 44.4399C67.2006 43.4306 68.4128 42.2874 67.9483 41.0101C67.511 39.8055 65.9462 39.6984 65.4327 39.6632C62.1875 39.4335 57.2188 41.1224 55.4821 43.6156C53.3629 46.659 56.3125 49.4568 56.988 51.5855C59.3853 59.1416 55.3553 66.5078 49.2886 71.7584C47.825 73.0252 46.7398 73.8817 45.7927 74.6304C44.4127 75.7181 41.1472 77.2643 42.0635 80.2561Z" fill="black"/>
</svg>
