<svg width="116" height="115" viewBox="0 0 116 115" fill="none" xmlns="http://www.w3.org/2000/svg">
<path d="M35.7666 106.269C48.7877 105.248 58.3373 92.4485 56.8233 79.1225C55.2264 68.7986 46.1873 59.2511 35.0944 58.4988C22.0829 57.5108 9.26165 69.3689 9.4838 82.6743C9.72536 95.8232 22.53 107.295 35.7666 106.269ZM34.9268 60.7928C44.9819 61.4752 53.1069 70.2827 54.5244 79.4249C55.8462 91.0808 47.5613 103.037 35.5838 103.975C23.7336 104.886 12.0204 94.5098 11.8038 82.6339C11.6049 70.8627 23.0326 59.9258 34.9268 60.7928Z" fill="black"/>
<path d="M20.247 82.1667V92.358C20.247 94.0905 21.4402 96.4893 22.1924 97.5959C22.4701 98.0013 22.9852 98.2018 23.4913 98.0526C24.6946 97.6922 25.9603 97.4302 27.1873 96.8112C28.7017 96.0557 30.2178 93.9456 30.8366 91.98C32.8938 92.6833 34.7154 92.6765 36.4243 92.1728C37.0031 94.0887 38.425 96.0625 39.9292 96.8127C40.9601 97.3246 42.0268 97.6022 43.1751 97.9208C43.666 98.0526 44.1855 97.8639 44.4635 97.4431C45.2444 96.2572 46.0872 93.9767 46.0872 92.358C46.0413 80.3822 46.1505 84.9823 46.211 82.2491C46.3273 80.4492 46.4466 78.5879 46.1159 76.7207C43.876 63.8012 23.7645 63.5867 20.4992 75.4194C19.8707 77.7046 20.247 80.0454 20.247 82.1667ZM25.6089 81.5962C29.3219 80.7858 31.3996 79.6995 34.1247 76.9079C38.7665 79.6617 39.3716 78.8646 40.1527 79.2827C40.1663 79.2977 40.2434 79.395 40.3914 79.8278C42.7071 86.4406 36.1812 90.0976 36.7649 89.5848C32.1743 91.9206 25.5132 87.6257 25.6089 81.5962Z" fill="black"/>
<path d="M106.341 32.0399C104.536 20.3828 94.3219 9.58275 81.7846 8.73143C66.8932 7.61724 52.5945 21.1782 52.8435 36.0529C53.119 50.9052 67.5639 63.8599 82.5474 62.72C97.2256 61.5693 108.052 47.1315 106.341 32.0399ZM82.3646 60.426C68.8382 61.4946 55.4146 49.6169 55.1635 36.0125C54.9385 22.4586 68.0868 10.0468 81.617 11.0254C92.7407 11.7813 102.347 21.4156 104.042 32.3439C105.556 45.7141 96.0552 59.3539 82.3646 60.426Z" fill="black"/>
<path d="M92.8995 21.4383C91.1193 20.9124 89.5277 21.9076 89.122 20.733C88.7487 19.5403 88.4579 18.5775 87.3291 17.9778C84.5085 16.4676 81.3755 18.9982 78.2258 19.6054C74.5531 20.3235 70.658 20.6693 67.5155 23.1243C65.0278 25.0694 63.5264 28.1706 63.5008 31.4184C63.485 33.3662 64.1331 34.4951 65.0293 36.1756C66.0122 38.034 66.8384 39.2346 66.9576 39.6274C67.3035 45.2589 69.5537 50.7694 74.77 52.9659C78.627 54.5875 83.0707 54.3884 86.8669 51.4595C90.9287 48.3558 91.9744 44.3797 92.0931 39.3593C92.542 37.7854 95.4183 29.9704 95.7331 27.7692C95.869 26.8049 95.9793 25.5426 95.6137 24.3282C95.1908 22.9192 94.1517 21.8111 92.8995 21.4383ZM85.4517 49.6372C82.3973 51.9926 78.8352 52.1772 75.6762 50.8486C72.1405 49.3603 70.2136 45.7466 69.5621 41.999C69.3016 40.5206 69.196 38.9175 69.2235 36.9875C69.3303 36.1858 69.5894 35.375 70.1421 34.7531C72.0755 32.576 74.8062 34.3265 78.0355 33.7573C83.0053 32.8826 83.3672 30.683 85.5891 30.5559C86.6404 30.4855 88.0511 30.9303 88.9241 31.5891C89.631 32.1237 89.64 33.3276 89.6476 34.4926C89.8677 40.507 90.3243 45.916 85.4517 49.6372Z" fill="black"/>
<path d="M96.8403 80.6365H75.1507C74.5103 80.6365 73.9907 81.1516 73.9907 81.7865C73.9907 82.4214 74.5103 82.9365 75.1507 82.9365H96.8403C97.4807 82.9365 98.0003 82.4214 98.0003 81.7865C98.0003 81.1516 97.4807 80.6365 96.8403 80.6365Z" fill="black"/>
<path d="M85.9955 87.0662H75.1507C74.5103 87.0662 73.9907 87.5813 73.9907 88.2162C73.9907 88.8511 74.5103 89.3662 75.1507 89.3662H85.9955C86.6359 89.3662 87.1555 88.8511 87.1555 88.2162C87.1555 87.5813 86.6359 87.0662 85.9955 87.0662Z" fill="black"/>
<path d="M104.367 79.5971C104.301 77.3859 102.81 75.9419 100.736 75.2277C98.5229 74.467 74.1206 74.8489 73.8593 74.8579C72.1254 74.9043 70.1618 74.9582 68.6544 76.6802C67.2075 78.3318 66.8238 91.0851 69.1816 93.168C70.1516 94.0276 71.2848 94.417 72.5694 94.6235V97.6437C72.5694 99.3174 74.616 100.06 75.7413 98.8686C79.7504 94.5916 79.5837 94.5711 79.8632 94.5711C80.6475 94.5711 95.3129 94.8076 95.4764 94.8122C97.739 94.875 100.57 94.9574 102.421 93.5154C105.317 91.2578 104.315 80.1242 104.367 79.5971ZM100.986 91.7066C99.7947 92.6349 97.4384 92.5691 95.5429 92.5137C95.3591 92.5081 80.6307 92.2711 79.8632 92.2711C79.1337 92.2711 78.4268 92.5736 77.9178 93.1111L74.8894 96.3859V94.4049C74.8894 92.6619 73.296 92.4088 72.7733 92.3265C72.0395 92.211 71.2859 91.9489 70.7282 91.4535C69.529 90.2691 69.5758 79.7978 70.4065 78.1866C71.2055 77.2732 72.213 77.2028 73.9469 77.1564C76.1925 77.0943 98.1202 76.8755 99.9744 77.4019C101.831 78.0364 101.932 78.8464 102.06 79.9355C102.479 88.2581 101.541 91.2753 100.986 91.7066Z" fill="black"/>
<path d="M20.5746 31.1235H42.2626C42.903 31.1235 43.4226 30.6084 43.4226 29.9735C43.4226 29.3386 42.903 28.8235 42.2626 28.8235H20.5746C19.9341 28.8235 19.4146 29.3386 19.4146 29.9735C19.4146 30.6084 19.9341 31.1235 20.5746 31.1235Z" fill="black"/>
<path d="M42.263 35.2517H31.4198C30.7793 35.2517 30.2598 35.7668 30.2598 36.4017C30.2598 37.0366 30.7793 37.5517 31.4198 37.5517H42.263C42.9035 37.5517 43.423 37.0366 43.423 36.4017C43.423 35.7668 42.9035 35.2517 42.263 35.2517Z" fill="black"/>
<path d="M14.9924 41.701C16.8441 43.146 19.6686 43.0606 21.9403 42.9992C22.0954 42.9948 37.6273 42.6852 37.7861 42.8525L41.6845 47.0691C42.8274 48.27 44.8458 47.4618 44.8458 45.8308V42.8105C46.1336 42.569 47.1959 42.2702 48.2351 41.3551C50.5899 39.2692 50.2077 26.5174 48.7608 24.8643C47.2519 23.1437 45.2868 23.0898 43.5302 23.0419C43.2931 23.0359 18.8953 22.6556 16.6795 23.4148C12.7151 24.7777 13.0977 27.854 13.0364 28.0073C12.4473 39.7154 14.3625 41.2098 14.9924 41.701ZM15.3534 28.1211C15.4272 27.9515 15.0422 26.4118 17.4257 25.592C19.1793 25.0949 39.9037 25.2416 43.4909 25.3419C45.2007 25.3883 46.2082 25.4587 46.9468 26.2868C47.8394 27.9833 47.8847 38.4561 46.6915 39.6376C46.1159 40.1437 45.3896 40.3854 44.6373 40.5135C44.1162 40.5959 42.5258 40.849 42.5258 42.5904V44.5745L39.4898 41.2922C38.9929 40.7621 38.286 40.4581 37.552 40.4581C36.7783 40.4581 22.0497 40.6954 21.8723 40.7007C19.9828 40.7561 17.6175 40.8235 16.4273 39.8921C15.873 39.4609 14.935 36.4436 15.3534 28.1211Z" fill="black"/>
</svg>
