<svg width="116" height="114" viewBox="0 0 116 114" fill="none" xmlns="http://www.w3.org/2000/svg">
<path d="M16.2415 55.5952C16.0707 55.8481 15.8896 56.0988 15.7469 56.3524C14.8652 57.7583 14.3637 59.5057 14.1836 61.1678H14.1791C14.1685 61.2301 14.164 61.3132 14.1655 61.3993C13.907 63.8323 14.4049 66.2309 15.4413 68.36C13.6167 69.6792 14.4049 71.8718 16.4629 72.3941C16.7033 72.4578 16.7469 72.4205 18.456 72.4312C20.1715 76.8581 20.9326 81.5528 19.4595 86.0845C18.3801 89.3815 17.0782 90.1336 16.0898 91.9893C15.6666 92.8295 15.4969 93.681 15.5596 94.4724C14.2987 95.4748 14.0538 97.0972 14.9118 98.3734C13.4247 99.6803 12.416 101.515 12.1053 103.548C11.8599 105.048 13.0517 106.453 14.6292 106.453H39.4121C40.9686 106.453 42.168 105.082 41.9375 103.559C41.6246 101.511 40.6109 99.6689 39.125 98.3667C39.6741 97.5428 39.6051 96.8349 39.6281 96.677C39.6216 96.4896 39.5628 96.3129 39.5199 96.1327C43.4781 96.4264 36.9577 95.0925 55.8862 97.6151C70.4367 99.5578 69.6768 99.1214 71.2698 99.2657C75.3328 99.478 79.5363 99.6962 83.6069 99.7021C90.6799 100.221 96.5518 99.1462 100.499 93.2258C103.416 88.8736 103.467 84.0746 103.519 79.433C103.553 76.3908 103.396 81.1402 105.189 36.1189C105.377 32.071 105.588 27.4828 102.773 23.8996C100.519 21.0216 97.2174 20.1931 94.6163 19.9021C94.2056 16.6527 93.2635 14.3722 90.295 12.619C86.7889 10.5872 82.257 11.2303 78.2168 11.798C77.3711 10.3016 76.145 9.18225 74.3496 8.3626C70.5904 6.7337 66.1493 7.88053 62.2209 8.89475C58.5493 9.84493 62.4084 8.89672 22.4426 17.4418C17.6229 18.4712 14.3755 20.2762 12.5146 22.9585C9.59801 27.1355 10.8441 32.0918 11.9452 36.4648C12.6737 39.3679 12.152 37.2954 16.2415 55.5952ZM37.1541 65.6342C37.052 65.9594 36.702 66.8445 36.1613 67.794H17.7662C13.4721 59.9597 19.9436 50.5315 29.3135 52.6667C35.6678 54.0911 38.8724 59.983 37.1541 65.6342ZM21.6693 86.7807C23.2113 82.0383 22.613 77.0898 20.9397 72.4312H33.1137C30.1551 80.5972 31.5151 87.1451 34.8899 91.5559C35.4296 92.2673 36.0539 93.0649 36.1708 93.8997H17.8721C18.1104 92.1385 20.227 91.1899 21.6693 86.7807ZM39.4121 104.173H14.6292C14.5099 104.173 14.4329 104.09 14.3966 103.897C14.67 102.12 15.6351 100.559 17.1697 99.5879L36.9955 99.6101C38.4062 100.559 39.3713 102.12 39.6432 103.896C39.6649 104.034 39.5581 104.173 39.4121 104.173ZM100.934 25.2904C103.435 28.4728 103.014 32.96 102.824 37.0942C101.041 82.067 101.233 76.2801 101.199 79.4092C101.149 83.9188 101.104 88.1789 98.5615 91.9745C95.6087 96.4024 91.3282 97.9862 83.696 97.4251C79.3521 97.4157 74.9049 97.1724 70.569 96.9471C67.1527 96.88 59.526 95.7889 52.9908 94.9314L79.8313 92.2514L90.1682 91.2219C91.1968 91.115 92.1347 90.6311 92.8189 89.8503C94.7488 87.6118 97.9022 83.867 99.7608 81.5185C100.446 80.643 100.857 79.4295 100.727 78.1757L94.8906 22.2363C97.7226 22.6428 99.6179 23.6083 100.934 25.2904ZM89.1078 14.5784C91.5227 16.0038 92.0591 17.7971 92.3628 20.5983L97.4078 68.7488C98.6251 80.4358 98.4057 78.1078 98.3939 78.7062C95.294 78.3192 92.0273 78.6262 88.6653 79.669C88.188 79.816 87.8602 80.2494 87.8542 80.7422C87.8181 83.6953 88.0949 85.6236 88.1427 86.4155C88.2123 87.4683 88.2983 88.3762 88.4901 89.0951C35.7123 94.366 40.2353 94.126 38.46 93.6193C38.2781 92.2446 37.5909 91.3025 36.7493 90.1917C36.6782 90.0359 33.1485 86.1922 33.9097 78.9758C34.1392 76.8862 34.7194 74.6866 35.6031 72.4312C37.3014 72.4205 37.3443 72.4578 37.5845 72.3941C39.7349 71.8451 40.4203 69.5688 38.525 68.2996C42.3445 60.8922 38.137 51.8975 29.2121 50.345C27.5545 34.7641 27.7889 36.3811 27.3877 33.4099C26.8228 29.2092 26.2398 24.8644 28.9313 21.7962C30.7031 19.7878 33.6408 18.6122 37.9168 18.201C82.0119 13.7868 74.0897 14.6842 78.5153 14.0589C81.8563 13.5894 86.2151 12.9019 89.1078 14.5784Z" fill="black"/>
<path d="M76.3526 30.5219C65.0215 32.879 54.8194 40.3919 49.7926 52.0211C46.8081 47.3093 44.7597 42.0275 43.8439 36.548C47.253 36.4238 49.7453 33.5106 49.4292 30.2883C49.1226 27.1459 46.2513 24.8407 43.0764 25.139C39.8788 25.4404 37.5271 28.2414 37.8352 31.3823C38.0484 33.5672 39.4949 35.3425 41.4293 36.124C42.4059 42.7483 44.9591 49.1243 48.7725 54.6643C47.8168 57.4515 47.2027 60.3471 46.9511 63.2949L46.8132 63.1034C46.4416 62.5928 45.7211 62.4681 45.1955 62.8318C44.6729 63.1954 44.549 63.9064 44.9191 64.4215L47.3645 67.8163C47.582 68.1176 47.9354 68.2972 48.3115 68.2972H48.3281C48.7087 68.2913 49.0637 68.1028 49.2766 67.7911L51.6737 64.2671C52.0301 63.7432 51.8882 63.0351 51.355 62.6863C50.8203 62.3345 50.1013 62.4785 49.7464 62.9995L49.2383 63.7454C49.4175 61.4383 49.8204 59.1602 50.4625 56.9475C59.337 68.2406 73.2708 74.5407 87.6628 74.0432L85.1068 77.625C84.7397 78.1416 84.8666 78.8511 85.3907 79.2133C85.9154 79.575 86.6411 79.4482 87.0069 78.9343L90.9158 73.4554C91.3036 72.9132 91.139 72.1564 90.5548 71.8182L85.1823 68.7069C84.6295 68.3863 83.9181 68.5689 83.5933 69.1107C83.2686 69.6525 83.4528 70.3516 84.0041 70.6722L85.9458 71.7965C72.8943 71.7455 59.7264 65.8066 51.3512 54.3024C55.6438 43.0391 65.1413 35.4611 76.0624 32.9315C76.3623 35.8765 78.8949 38.0843 81.8503 38.0843C82.0361 38.0843 82.2234 38.0753 82.4107 38.0575C85.6082 37.7562 87.9599 34.9552 87.6518 31.8143C87.3422 28.6733 84.4633 26.3651 81.299 26.665C78.9511 26.8862 77.0703 28.4603 76.3526 30.5219ZM43.6352 27.3923C45.4175 27.3923 46.9461 28.7282 47.1213 30.505C47.3056 32.3961 45.8903 34.0809 43.9675 34.2635C42.0176 34.4312 40.3289 33.0552 40.1432 31.1656C39.9478 29.1603 41.5507 27.3923 43.6352 27.3923ZM81.8578 28.9182C83.6386 28.9182 85.1687 30.2542 85.3439 32.0325C85.5282 33.9221 84.1129 35.6068 82.1901 35.7894C80.2583 35.9661 78.5515 34.5796 78.3658 32.6915C78.1704 30.6863 79.7733 28.9182 81.8578 28.9182Z" fill="black"/>
<path d="M51.4758 73.5074C48.2782 73.8087 45.928 76.6097 46.2361 79.7506C46.5246 82.7075 49.0651 84.9281 52.0286 84.9281C55.4628 84.9281 58.158 82.0161 57.8286 78.6581C57.522 75.5157 54.6492 73.2016 51.4758 73.5074ZM52.3684 82.6333C50.4381 82.8025 48.7298 81.4235 48.5441 79.5339C48.3486 77.5282 49.9503 75.7606 52.0346 75.7606C53.8169 75.7606 55.3455 77.0966 55.5207 78.8749C55.7049 80.766 54.2912 82.4507 52.3684 82.6333Z" fill="black"/>
<path d="M85.7217 54.2046C87.0358 54.2046 87.3315 52.3769 86.0797 51.981L82.2744 50.7664C82.6141 50.2437 83.0235 49.7663 83.5044 49.3641C83.9923 48.9558 84.0512 48.2359 83.6358 47.7565C83.2219 47.2785 82.4894 47.2206 82 47.6273C81.1935 48.3021 80.542 49.1369 80.0335 50.051L77.2301 49.1562C76.6139 48.9573 75.9659 49.2898 75.7695 49.888C75.5717 50.4862 75.904 51.1305 76.5142 51.3234L79.1829 52.1753C78.8332 53.5162 78.7721 54.9281 79.0864 56.2753C79.2103 56.8037 79.6876 57.16 80.2162 57.16C80.975 57.16 81.5119 56.4679 81.349 55.7647C81.1274 54.8163 81.1561 53.8249 81.3803 52.8766C85.5367 54.1835 85.3997 54.2046 85.7217 54.2046Z" fill="black"/>
</svg>
