<svg width="116" height="114" viewBox="0 0 116 114" fill="none" xmlns="http://www.w3.org/2000/svg">
<path d="M30.322 19.3009C70.8285 17.3978 86.1327 16.7327 86.9309 16.6172C90.0266 16.1636 91.1167 17.6272 91.1857 20.6784C91.189 20.8311 94.7457 64.0478 94.77 64.2003C95.0054 65.5751 94.3453 66.3789 93.0088 66.5545C91.8474 66.7079 39.5769 75.681 38.0085 76.0634C36.8742 76.3365 35.5828 76.6483 34.4439 76.6483C31.6014 76.6483 31.2545 74.7146 31.2026 71.9146C31.1782 70.5173 31.5172 74.6415 26.2484 24.1251C25.9018 20.8106 27.1382 19.4529 30.322 19.3009ZM28.5563 23.8906C32.2101 58.9366 33.5006 70.6516 33.5226 71.873C33.5346 72.5098 33.5618 73.9972 33.8292 74.2851C34.3442 74.6043 36.6854 74.0343 37.4542 73.8487C39.105 73.4538 91.5078 64.4619 92.4515 64.3294C92.4347 64.1769 88.869 20.8814 88.8657 20.7289C88.806 18.0632 88.3201 18.8851 86.298 18.9788L30.4322 21.5779C28.5977 21.6669 28.3475 21.9153 28.5563 23.8906Z" fill="black"/>
<path d="M16.2676 12.8558L17.0599 12.824C19.1852 11.9164 17.7309 12.6573 92.4167 8.92072C92.7505 8.91033 93.0889 8.85986 93.4242 8.81384C95.3303 8.54659 96.6033 8.61439 97.7606 10.221C98.478 11.3551 98.5037 12.6628 98.5264 13.8177C98.5353 14.2549 102.278 49.996 103.63 58.2272C104.612 64.389 105.321 66.9071 104.307 69.2368C103.769 70.4688 102.751 71.5005 101.514 72.066C100.187 72.6729 95.4316 73.204 94.0555 73.497C88.7957 74.6272 69.1519 78.3775 68.9776 78.4114L69.7841 83.0169C76.2404 83.2897 80.3589 84.6131 81.5961 84.8792C86.3872 86.2017 91.3398 87.9978 91.7401 91.2916C91.8941 92.5682 91.5921 93.5716 90.8414 94.2738C89.3264 95.6899 86.5684 95.2282 84.555 94.8913C77.8457 93.7751 68.9361 95.6299 62.2341 100.551C59.304 102.7 56.563 105.306 52.7079 105.306C48.4077 105.306 45.1226 101.988 42.212 98.384C41.3148 97.2722 38.9314 94.3198 40.2621 91.5366C40.9161 90.168 42.2105 89.408 43.3735 88.8038C47.4159 86.7013 51.7413 85.1698 56.1921 84.1985L55.7024 80.8517C50.8357 81.7348 26.437 86.4051 20.9771 86.4051C19.5225 86.4051 19.2461 86.1409 18.9758 85.8826C17.5715 84.5532 17.62 79.0407 11.2907 18.7458C11.1699 17.6192 10.9464 15.5247 12.3314 14.1427C13.4627 12.9924 15.1438 12.9107 16.2676 12.8558ZM44.458 90.8196C43.6273 91.2516 42.7119 91.7741 42.3615 92.5074C41.8722 93.5316 42.4023 94.9492 44.0305 96.9679C46.6405 100.201 49.465 103.143 52.9783 103.02C55.8685 102.89 58.2842 100.604 60.8445 98.7254C68.0767 93.4162 77.6859 91.4229 84.9432 92.6439C86.2119 92.8547 88.5697 93.2525 89.2418 92.6217C89.4337 92.442 89.5001 92.0858 89.4352 91.5618C89.2569 90.0849 86.4083 88.5752 80.9693 87.0745C79.833 86.8277 76.318 85.6424 70.1876 85.321L70.3903 86.4793C70.6754 88.123 70.0761 89.078 68.2757 89.5698L60.7131 91.6524C58.4934 92.2662 57.2491 91.3932 56.9114 89.1141L56.523 86.4597C52.3351 87.3895 48.2652 88.8389 44.458 90.8196ZM95.8152 70.8978C97.3603 70.6618 99.9462 70.2684 100.535 69.9998C101.26 69.6673 101.858 69.0617 102.174 68.3388C102.844 66.798 102.43 65.168 101.05 56.8185C100.165 51.4337 96.2215 14.6383 96.2079 13.8622C96.1882 12.9181 96.1716 12.026 95.8363 11.4917C95.3602 10.8473 95.02 10.8923 93.7519 11.0701C92.6445 11.2273 97.9692 10.9709 19.9137 14.5866C17.3367 14.7286 16.8332 15.1612 17.1361 17.9665C23.5109 78.7297 23.337 80.9515 24.1414 83.5655C33.0764 83.549 91.4931 71.5528 95.8152 70.8978Z" fill="black"/>
<path d="M72.4324 32.3737C69.7159 30.7108 70.1032 26.7099 72.9656 25.4402C76.2728 23.9648 79.9296 27.0445 78.2868 30.83C77.4057 32.8681 74.5374 33.6632 72.4324 32.3737Z" fill="black"/>
<path d="M65.9574 41.9317C68.7273 35.7684 78.8305 33.7913 84.6156 37.4073C89.2027 40.2833 86.9024 43.1466 84.9539 43.4131L68.7577 45.6159C66.6218 45.8908 65.1317 43.7847 65.9574 41.9317ZM84.898 40.6537C81.295 36.1973 70.5881 37.2903 68.081 42.8505C67.9583 43.1259 68.1784 43.4005 68.4405 43.3567L84.6352 41.1539C84.8478 41.1261 85.0429 40.8973 84.898 40.6537Z" fill="black"/>
<path d="M38.7352 29.926L56.6216 29.071C57.2091 29.0072 57.8042 29.5252 57.836 30.1546C57.8677 30.7825 57.3738 31.3169 56.7334 31.348L38.847 32.203C38.2633 32.2508 37.6654 31.7825 37.6326 31.1194C37.6009 30.4916 38.0948 29.9572 38.7352 29.926Z" fill="black"/>
<path d="M42.0624 37.863C42.0247 37.2352 42.5125 36.6948 43.153 36.6577L53.2954 36.0699C53.8633 36.0506 54.4826 36.5123 54.5219 37.1416C54.5596 37.7695 54.0718 38.3098 53.4314 38.347L43.2889 38.9348C42.6647 38.9757 42.1006 38.5003 42.0624 37.863Z" fill="black"/>
<path d="M64.6205 54.019L82.3996 51.9186C83.0264 51.8548 83.614 52.2882 83.691 52.9146C83.7665 53.5395 83.3134 54.108 82.6775 54.1837C64.1052 56.3741 64.9144 56.2916 64.7579 56.2916C64.1794 56.2916 63.678 55.867 63.607 55.2881C63.5315 54.6632 63.9846 54.0947 64.6205 54.019Z" fill="black"/>
<path d="M69.5158 60.4255L79.5903 59.1326C80.2141 59.0569 80.8062 59.4918 80.8908 60.1167C80.9724 60.7402 80.5253 61.3131 79.8894 61.3948L69.8149 62.6877C69.1595 62.7657 68.5962 62.3134 68.5144 61.7035C68.4329 61.0801 68.88 60.5071 69.5158 60.4255Z" fill="black"/>
</svg>
