<svg width="116" height="114" viewBox="0 0 116 114" fill="none" xmlns="http://www.w3.org/2000/svg">
<path d="M11.0088 53.08C10.8428 54.5431 11.093 56.0374 11.7836 57.3829C11.7851 57.3844 11.7866 57.3858 11.7866 57.3888C19.8387 72.8605 29.7334 87.3776 41.1959 100.538C44.2241 104.023 47.6194 107.332 52.3322 107.332C55.7488 107.332 58.966 105.618 61.3857 104.328L94.3052 86.8047C95.6308 86.0842 98.675 85.1613 98.915 82.9468C99.0947 81.3155 97.5269 80.079 96.382 79.178C95.6487 78.5947 95.8234 78.7489 94.0972 77.0803C95.321 76.2265 96.5437 75.3722 97.7777 74.52C98.9989 73.6489 101.928 72.3652 101.888 70.1381C101.846 68.1037 99.2422 67.0174 98.1583 66.2223C90.6172 60.7454 90.0595 59.4988 86.3697 55.2743C91.4558 48.1864 97.6603 39.5196 102.432 32.9123C105.346 33.878 107.095 32.3506 108.82 29.8492C110.272 27.7346 111.127 25.7284 109.554 23.6466C111.876 19.8575 112.213 16.6347 110.686 13.1136C109.047 9.33366 104.84 6.68331 100.456 6.66772C100.293 6.70812 94.5428 6.42242 90.2607 11.673C87.6024 10.9984 85.9091 13.033 84.3908 15.2734C83.2919 16.9089 82.6961 18.111 83.0043 19.5476C83.2312 20.6083 83.9187 21.365 84.6921 21.9809C81.5383 26.6838 77.061 33.348 72.5071 40.0837C70.6003 38.1083 69.4249 35.0448 68.0753 32.6784C66.3444 29.6458 64.5107 26.3802 62.8266 23.0537C61.3398 20.1036 57.6208 18.993 54.7278 20.6951L14.7531 44.1645C13.9712 44.626 13.3029 45.2052 12.7466 45.8602L7.95167 44.5208C6.43053 44.1019 5.52346 44.7265 5.21027 46.0556C4.97464 47.0501 4.73298 48.0358 4.48376 49.0437C4.16077 50.4157 4.60883 51.3874 5.99719 51.7408C7.66639 52.1911 9.33871 52.6366 11.0088 53.08ZM76.9694 64.392C76.1954 64.2743 75.4395 64.085 74.6974 63.8458C76.1712 61.7428 97.8101 30.8291 98.0557 30.4782C99.6379 31.4729 100.025 31.7193 100.318 31.8991C93.3235 41.5891 83.7503 55.0026 76.9694 64.392ZM68.7964 69.8253C66.6318 68.7547 64.1241 67.0366 62.3144 65.3201C62.1771 61.8737 62.5869 59.4385 63.6647 57.349C65.9406 61.7699 70.2369 65.1492 75.1268 66.3592C73.33 67.8542 71.0569 68.8692 68.7964 69.8253ZM86.6036 23.2734L89.9937 25.4062C83.1735 34.6882 73.6051 47.9125 66.5016 57.587C65.969 56.7688 65.5102 55.9081 65.1573 54.9981C71.9855 45.0354 81.2173 31.3052 86.6036 23.2734ZM67.9613 59.494C74.8624 50.1087 84.685 36.5288 91.9501 26.637L96.0991 29.2473C95.9877 29.4065 74.8892 59.5521 72.5133 62.9436C70.7969 62.0781 69.2458 60.9096 67.9613 59.494ZM100.447 8.94772C103.933 8.9596 107.265 11.0407 108.551 14.0072C109.733 16.7301 109.532 19.1085 107.809 22.0714C102.656 18.4476 96.0327 14.9247 94.0182 13.6109C93.5195 13.2851 92.9881 12.9443 92.4477 12.6279C96.0175 8.69 100.601 8.91152 100.447 8.94772ZM15.9448 46.1209L55.918 22.6515C57.6254 21.6459 59.847 22.2745 60.7483 24.0676C63.5824 29.6627 65.6161 32.8341 67.228 36.0391C68.3156 38.2003 69.4634 40.4065 71.1943 42.0242C68.1297 46.5514 65.0912 51.0193 62.4671 54.8387C58.7104 60.3124 60.4388 65.7144 60.0112 70.294C59.9366 71.081 60.3244 72.1119 60.8404 72.9184C59.6919 76.3507 62.308 78.7612 62.9656 81.2516C63.2446 82.3127 62.9239 83.9726 61.8871 84.1773C59.9354 84.5766 58.2327 79.8786 54.7368 79.8786C53.7441 79.8786 52.915 80.268 52.1903 80.4946C49.4957 81.3303 46.2422 80.1369 44.7711 77.7737C43.3 75.4106 43.6987 72.0144 45.6804 70.0416C46.6973 69.0292 48.2283 68.2301 49.4821 67.1694C51.3142 65.6197 52.1661 63.7078 51.8202 61.9251C51.1536 58.4687 46.5498 57.4835 43.3981 58.9341C40.7433 60.1546 38.8941 62.3771 36.5786 63.5148C34.7938 64.394 31.7724 64.2371 31.2604 62.403C30.7393 60.5372 33.1907 58.6891 34.6981 57.754C37.657 55.9163 40.7202 54.1603 43.6821 52.4622C58.8778 43.7516 60.0753 43.3013 61.7859 41.1854C63.4112 39.18 63.8522 36.615 62.9112 34.6497C61.6787 32.0758 58.5703 31.197 56.1959 31.4672C53.7566 31.7462 51.6344 32.9708 49.763 34.0515L25.4317 48.0981C24.8789 48.4173 24.6946 49.1149 25.0194 49.6582C25.3426 50.2 26.054 50.3826 26.6068 50.0634L50.9381 36.0168C52.6117 35.0505 54.5103 33.955 56.4647 33.7323C58.0915 33.5453 60.1003 34.1376 60.8117 35.6205C61.4582 36.9698 60.8555 38.6738 59.9704 39.7663C58.5484 41.5238 57.5015 41.9005 42.513 50.4939C39.533 52.2009 36.4532 53.9673 33.4596 55.8273C28.9223 58.6416 28.5432 61.2838 29.022 63.0057C29.953 66.3405 34.4726 67.0991 37.6163 65.5544C40.1955 64.287 42.0789 62.0585 44.3799 61.0003C46.185 60.1702 49.188 60.516 49.5425 62.3511C49.8144 63.7538 48.4067 65.0705 47.9687 65.4416C46.7669 66.457 45.2778 67.1964 44.028 68.44C41.2881 71.1683 40.7564 75.6926 42.7925 78.9642C44.83 82.2358 49.1725 83.8315 52.8911 82.6677C54.8965 82.047 55.0651 81.5327 57.4782 84.0274C58.8804 85.4752 60.3126 86.8241 62.3508 86.4113C64.8105 85.9178 65.8298 83.0324 65.2116 80.6816C64.5519 78.1717 62.7782 76.5097 62.9047 74.4279C63.8097 74.5457 64.6783 74.2199 65.4744 73.8179C69.9874 71.5051 75.564 70.2703 78.7736 65.8334C80.6707 63.2077 82.7827 60.2708 84.9895 57.1972C88.5946 61.3834 89.548 62.8074 96.7732 68.0511C97.4667 68.5643 99.5575 69.6577 99.5675 70.1812C99.5806 70.8439 97.0632 72.2167 96.4319 72.663C93.3029 74.8244 67.8373 92.6049 65.5635 94.177C58.558 99.0039 55.2328 99.0101 48.3055 92.7481C35.7304 81.4029 24.2591 68.4339 14.3196 53.9663L16.5958 54.5759C18.0808 54.9529 18.9278 54.2409 19.1514 52.9164C19.4077 51.496 19.5569 50.5418 19.7208 49.7012C20.1426 48.0434 19.1547 47.5844 17.6546 47.2312L15.2998 46.5735C15.5032 46.4116 15.7146 46.2567 15.9448 46.1209Z" fill="black"/>
</svg>
